<svg width="27" height="32" viewBox="0 0 27 32" fill="none" xmlns="http://www.w3.org/2000/svg">
    <g clip-path="url(#a)">
        <path d="M27 13.588h-4.785c0-4.837-3.91-8.773-8.715-8.773s-8.716 3.936-8.716 8.773H0C0 6.095 6.055 0 13.5 0 20.943 0 27 6.095 27 13.588z" fill="#12AD90"/>
        <path d="M4.783 13.588v10.366a13.82 13.82 0 0 1-2.196-2.377A13.565 13.565 0 0 1 0 13.587h4.783z" fill="#FFD736"/>
        <path d="M4.783 13.588H0V32h4.783V13.588zM27 13.588a13.6 13.6 0 0 1-4.784 10.367l-3.398-3.42a8.783 8.783 0 0 0 3.398-6.946H27v-.001z" fill="#12AD90"/>
        <path d="M17.472 15.995a2.4 2.4 0 0 0 2.392-2.407 2.4 2.4 0 0 0-2.392-2.407 2.4 2.4 0 0 0-2.391 2.407 2.4 2.4 0 0 0 2.391 2.407zM9.527 15.995a2.4 2.4 0 0 0 2.391-2.407 2.4 2.4 0 0 0-2.391-2.407 2.4 2.4 0 0 0-2.392 2.407 2.4 2.4 0 0 0 2.392 2.407zM22.216 23.955a13.391 13.391 0 0 1-8.718 3.22 13.384 13.384 0 0 1-8.714-3.22l3.397-3.42a8.632 8.632 0 0 0 5.317 1.826 8.637 8.637 0 0 0 5.319-1.826l3.399 3.42z" fill="#FDCA59"/>
    </g>
    <defs>
        <clipPath id="a">
            <path fill="#fff" d="M0 0h27v32H0z"/>
        </clipPath>
    </defs>
</svg>
